<svg width="44" height="44" viewBox="0 0 44 44" fill="none" xmlns="http://www.w3.org/2000/svg">
<rect x="0.5" y="0.5" width="43" height="43" rx="21.5" fill="white"/>
<rect x="0.5" y="0.5" width="43" height="43" rx="21.5" stroke="#E7EAEE"/>
<g clip-path="url(#clip0_153_575)">
<path d="M12.4813 30.0476C12.241 30.0476 11.9998 29.9695 11.9998 29.3554C11.9998 28.7414 12.3217 28.644 12.5664 28.644C12.6739 28.6439 12.78 28.6679 12.8769 28.7142V28.8976C12.7783 28.8566 12.6732 28.8335 12.5664 28.8291C12.4094 28.8291 12.2217 28.9072 12.2217 29.3458C12.2217 29.7844 12.3638 29.8642 12.4927 29.8642C12.563 29.8615 12.6329 29.8524 12.7015 29.837V29.3791H12.5024L12.4927 29.1993H12.9234V29.9712C12.7802 30.0167 12.6315 30.0424 12.4813 30.0476Z" fill="#3A474F"/>
<path d="M13.8603 30.028L13.8314 29.9052C13.749 29.9878 13.6398 30.0382 13.5235 30.0473C13.3577 30.0473 13.2349 29.9727 13.2349 29.7455V28.9946H13.4568V29.7104C13.4568 29.8209 13.4963 29.8578 13.584 29.8578C13.6688 29.8492 13.7501 29.819 13.82 29.7701V28.9964H14.0419V30.0297L13.8603 30.028Z" fill="#3A474F"/>
<path d="M14.9007 30.0282L14.8753 29.9212C14.8079 30.0021 14.7077 30.0485 14.6024 30.0475C14.4761 30.0475 14.3042 29.9984 14.3042 29.7203C14.3042 29.4423 14.5323 29.3887 14.6963 29.3887H14.8717V29.2931C14.8717 29.1703 14.8068 29.1589 14.6963 29.1589C14.5939 29.1647 14.4925 29.1829 14.3945 29.2133V29.0317C14.504 28.9964 14.6181 28.9775 14.7331 28.9756C14.9288 28.9756 15.0902 29.0265 15.0902 29.3107V30.0282H14.9007ZM14.87 29.5151H14.7665C14.6086 29.5151 14.527 29.5537 14.527 29.7054C14.527 29.8572 14.591 29.8738 14.6709 29.8738C14.744 29.8684 14.8137 29.8402 14.87 29.7931V29.5151Z" fill="#3A474F"/>
<path d="M15.778 29.1931C15.7227 29.1935 15.6696 29.2151 15.6298 29.2537V30.0291H15.407V28.9949H15.5824L15.6122 29.1159C15.6484 29.0336 15.7285 28.9791 15.8184 28.9756C15.852 28.976 15.8855 28.9799 15.9184 28.987V29.2116C15.8724 29.2006 15.8253 29.1944 15.778 29.1931Z" fill="#3A474F"/>
<path d="M16.6016 30.0282L16.5762 29.9212C16.5088 30.0021 16.4087 30.0485 16.3034 30.0475C16.1771 30.0475 16.0051 29.9984 16.0051 29.7203C16.0051 29.4423 16.2332 29.3887 16.3972 29.3887H16.5727V29.2931C16.5727 29.1703 16.5078 29.1589 16.3972 29.1589C16.2948 29.1646 16.1934 29.1828 16.0955 29.2133V29.0317C16.2049 28.9964 16.3191 28.9775 16.4341 28.9756C16.6288 28.9756 16.7911 29.0265 16.7911 29.3107V30.0282H16.6016ZM16.5709 29.5151H16.4674C16.3095 29.5151 16.2279 29.5537 16.2279 29.7054C16.2279 29.8572 16.292 29.8738 16.3718 29.8738C16.445 29.8684 16.5146 29.8402 16.5709 29.7931V29.5151Z" fill="#3A474F"/>
<path d="M17.7375 30.0282V29.287C17.7375 29.18 17.6769 29.1668 17.5953 29.1668C17.5014 29.1723 17.4106 29.2026 17.3322 29.2545V30.0265H17.1138V28.9949H17.2892L17.3287 29.1142C17.4234 29.0323 17.5423 28.9837 17.6673 28.9756C17.8427 28.9756 17.9576 29.0475 17.9576 29.2835V30.0282H17.7375Z" fill="#3A474F"/>
<path d="M18.5481 30.0476C18.4033 30.0476 18.2902 30.0011 18.2902 29.7783V29.1529H18.1147V28.995H18.2902L18.3042 28.7634L18.513 28.6836V28.995H18.7463L18.7235 29.1529H18.513V29.781C18.513 29.8564 18.5454 29.8687 18.6007 29.8687C18.6601 29.8622 18.7188 29.8505 18.7761 29.8336V30.009C18.7025 30.0332 18.6256 30.0462 18.5481 30.0476Z" fill="#3A474F"/>
<path d="M19.3366 30.1639C19.2725 30.3788 19.1497 30.4174 19.0269 30.4174C18.9588 30.4149 18.8913 30.4037 18.826 30.3841V30.2087C18.8863 30.2228 18.9476 30.2325 19.0094 30.2376C19.0813 30.2376 19.1243 30.185 19.1532 30.0622L19.1673 30.006L18.7751 28.9902H19.0313L19.2611 29.7701L19.4462 28.9902H19.6892L19.3366 30.1639Z" fill="#3A474F"/>
<path d="M21.0551 28.8626H20.7498V30.0284H20.527V28.8626H20.1963V28.667H21.0805L21.0551 28.8626Z" fill="#3A474F"/>
<path d="M21.4998 29.1931C21.4444 29.1935 21.3913 29.2151 21.3516 29.2537V30.0291H21.1296V28.9949H21.3051L21.3349 29.1159C21.3711 29.0336 21.4511 28.9791 21.541 28.9756C21.5747 28.976 21.6082 28.9799 21.641 28.987V29.2116C21.5947 29.2005 21.5474 29.1943 21.4998 29.1931Z" fill="#3A474F"/>
<path d="M22.4306 30.028L22.4017 29.9052C22.3193 29.9878 22.2101 30.0382 22.0938 30.0473C21.928 30.0473 21.8052 29.9727 21.8052 29.7455V28.9946H22.0271V29.7104C22.0271 29.8209 22.0666 29.8578 22.1543 29.8578C22.2392 29.8492 22.3204 29.819 22.3903 29.7701V28.9964H22.6139V30.0297L22.4306 30.028Z" fill="#3A474F"/>
<path d="M23.1226 30.0475C23.0333 30.0442 22.9448 30.0292 22.8594 30.0028V29.8159C22.9406 29.8409 23.0241 29.8576 23.1086 29.8659C23.2042 29.8659 23.284 29.8484 23.284 29.7414C23.284 29.6537 23.2252 29.6326 23.1472 29.601L23.0594 29.5642C22.9316 29.5288 22.8431 29.4126 22.8428 29.28C22.8428 29.0589 23.0086 28.9756 23.2068 28.9756C23.2932 28.9761 23.3789 28.9912 23.4603 29.0203V29.1958C23.3824 29.1724 23.302 29.158 23.2208 29.1528C23.12 29.1528 23.0551 29.1808 23.0551 29.2642C23.0551 29.3475 23.1252 29.3712 23.1919 29.3966L23.291 29.4335C23.4214 29.4705 23.5088 29.5929 23.5015 29.7282C23.5042 30.0045 23.3033 30.0475 23.1226 30.0475Z" fill="#3A474F"/>
<path d="M24.0174 30.0476C23.8727 30.0476 23.7604 30.0011 23.7604 29.7783V29.1529H23.585V28.995H23.7604L23.7736 28.7634L23.9823 28.6836V28.995H24.2157L24.1929 29.1529H23.9823V29.781C23.9823 29.8564 24.0157 29.8687 24.07 29.8687C24.1295 29.8622 24.1882 29.8505 24.2455 29.8336V30.009C24.1718 30.0332 24.0949 30.0462 24.0174 30.0476Z" fill="#3A474F"/>
<path d="M25.2455 30.0284H24.9648V28.667H25.2552C25.5789 28.667 25.7719 28.717 25.7719 29.0179C25.7814 29.1656 25.6769 29.2964 25.5306 29.3196C25.6666 29.3433 25.8113 29.4073 25.8113 29.6389C25.8096 29.9933 25.5964 30.0284 25.2455 30.0284ZM25.2578 28.8337H25.1877V29.2451H25.2657C25.4622 29.2451 25.5499 29.2135 25.5499 29.0266C25.5482 28.8565 25.4508 28.8337 25.2561 28.8337H25.2578ZM25.2657 29.4082H25.1877V29.8582H25.2692C25.4754 29.8582 25.5885 29.8372 25.5885 29.6345C25.5885 29.4319 25.4701 29.4082 25.264 29.4082H25.2657Z" fill="#3A474F"/>
<path d="M26.5806 30.0282L26.5552 29.9212C26.4878 30.0021 26.3877 30.0485 26.2824 30.0475C26.1561 30.0475 25.9841 29.9984 25.9841 29.7203C25.9841 29.4423 26.2122 29.3887 26.3762 29.3887H26.5517V29.2931C26.5517 29.1703 26.4876 29.1589 26.3762 29.1589C26.2738 29.1646 26.1724 29.1828 26.0745 29.2133V29.0317C26.184 28.9964 26.2981 28.9775 26.4131 28.9756C26.6078 28.9756 26.7701 29.0265 26.7701 29.3107V30.0282H26.5806ZM26.549 29.5151H26.4464C26.2885 29.5151 26.2061 29.5537 26.2061 29.7054C26.2061 29.8572 26.271 29.8738 26.3508 29.8738C26.4238 29.8688 26.4933 29.8405 26.549 29.7931V29.5151Z" fill="#3A474F"/>
<path d="M27.7165 30.0282V29.287C27.7165 29.18 27.656 29.1668 27.5744 29.1668C27.4805 29.1723 27.3897 29.2026 27.3113 29.2545V30.0265H27.0894V28.9949H27.2648L27.3043 29.1142C27.399 29.0323 27.5179 28.9837 27.6429 28.9756C27.8183 28.9756 27.9332 29.0475 27.9332 29.2835V30.0282H27.7165Z" fill="#3A474F"/>
<path d="M28.2595 30.028V28.6245H28.4815V30.028H28.2595ZM28.8323 30.0473L28.5148 29.4333L28.7841 28.9947H29.0472L28.7393 29.4333L29.0858 30.0315L28.8323 30.0473Z" fill="#3A474F"/>
<path d="M30.4087 30.0284H29.7947V28.667H30.0166V29.8337H30.4298L30.4087 30.0284Z" fill="#3A474F"/>
<path d="M30.8595 30.0476C30.7156 30.0476 30.6024 30.0011 30.6024 29.7783V29.1529H30.427V28.995H30.6024L30.6165 28.7634L30.8244 28.6836V28.995H31.0586L31.0349 29.1529H30.8244V29.781C30.8244 29.8564 30.8577 29.8687 30.9121 29.8687C30.9715 29.8622 31.0302 29.8505 31.0875 29.8336V30.009C31.0139 30.0333 30.937 30.0463 30.8595 30.0476Z" fill="#3A474F"/>
<path d="M31.8779 30.028L31.8507 29.9307C31.7775 30.0059 31.6768 30.0481 31.5718 30.0473C31.4182 30.0473 31.1858 29.9789 31.1858 29.5114C31.1858 29.0438 31.4805 28.9754 31.6112 28.9754C31.6929 28.9726 31.7719 29.0045 31.8288 29.0631V28.6245H32.0516V30.028H31.8779ZM31.8288 29.2149C31.7764 29.1757 31.7134 29.1533 31.6481 29.1508C31.5305 29.1508 31.4077 29.1859 31.4077 29.5114C31.4077 29.8508 31.5191 29.8763 31.6279 29.8763C31.7018 29.8702 31.772 29.8414 31.8288 29.7938V29.2149Z" fill="#3A474F"/>
<path d="M28.8368 31.8492L28.7903 31.6896C28.7781 31.6399 28.7537 31.594 28.7192 31.5562L28.6464 31.5624V31.8492H28.5315V31.1475H28.7017C28.8455 31.1475 28.9578 31.1764 28.9578 31.3475C28.9667 31.4354 28.9088 31.5162 28.8227 31.5361C28.8581 31.5651 28.8838 31.6043 28.8964 31.6483L28.9675 31.8501L28.8368 31.8492ZM28.6894 31.2422H28.6464V31.4782C28.778 31.4711 28.8429 31.451 28.8429 31.3475C28.8429 31.244 28.7929 31.2422 28.6894 31.2422Z" fill="#3A474F"/>
<path d="M29.2806 31.8586C29.1736 31.8586 29.042 31.8236 29.042 31.4981C29.042 31.1727 29.199 31.1367 29.2911 31.1367C29.3328 31.1367 29.3742 31.1445 29.413 31.1595V31.2534C29.3753 31.2408 29.3361 31.2334 29.2964 31.2315C29.2262 31.2315 29.1569 31.2692 29.1569 31.4946C29.1569 31.7016 29.2122 31.7578 29.2859 31.7578C29.3291 31.7556 29.3719 31.7477 29.413 31.7341V31.8306C29.3708 31.8474 29.326 31.8569 29.2806 31.8586Z" fill="#3A474F"/>
<path d="M29.8526 31.8494V31.4038L29.7219 31.4582V31.3599L29.8781 31.2871H29.9658V31.8494H29.8526Z" fill="#3A474F"/>
<path d="M30.3736 31.9343C30.295 31.9686 30.2102 31.9862 30.1244 31.986V31.8939C30.1888 31.8941 30.2526 31.8816 30.3122 31.8571C30.3648 31.8348 30.3975 31.7817 30.3937 31.7246C30.3937 31.6369 30.3552 31.6203 30.2946 31.6203C30.2526 31.6217 30.2118 31.6351 30.1771 31.6588L30.1174 31.6404L30.128 31.2896H30.4876L30.4771 31.3913H30.2341L30.2271 31.5553C30.2583 31.5394 30.2929 31.5312 30.328 31.5317C30.3786 31.5301 30.4275 31.5505 30.4619 31.5877C30.4964 31.6249 30.5131 31.6751 30.5078 31.7255C30.5098 31.816 30.4567 31.8986 30.3736 31.9343Z" fill="#3A474F"/>
<path d="M30.785 31.7035L30.721 31.75H30.9543L30.9447 31.8491H30.5964V31.7456L30.7052 31.6517C30.7815 31.585 30.8473 31.5412 30.8473 31.4587C30.8473 31.3964 30.8122 31.371 30.7473 31.371C30.6971 31.3736 30.6474 31.3833 30.5999 31.4V31.307C30.6503 31.2873 30.7038 31.2766 30.7578 31.2754C30.8736 31.2754 30.9622 31.3228 30.9622 31.4508C30.9622 31.5789 30.871 31.6412 30.785 31.7035Z" fill="#3A474F"/>
<path d="M31.298 31.9405C31.2159 31.9712 31.1287 31.9864 31.041 31.9852V31.8975C31.1056 31.8979 31.1698 31.8882 31.2314 31.8686C31.2829 31.8505 31.3159 31.8002 31.3121 31.7458C31.3121 31.6642 31.2498 31.6449 31.1796 31.6449H31.1094V31.5572H31.1805C31.2393 31.5572 31.2963 31.5352 31.2963 31.4545C31.2963 31.3931 31.2551 31.3668 31.1954 31.3668C31.1432 31.3686 31.0914 31.3765 31.041 31.3905V31.3028C31.0927 31.2876 31.146 31.2791 31.1998 31.2773C31.3033 31.2773 31.4103 31.3089 31.4103 31.4449C31.4112 31.5183 31.3595 31.5818 31.2875 31.5958C31.3672 31.6 31.429 31.6669 31.427 31.7466C31.4305 31.8324 31.3784 31.9106 31.298 31.9405Z" fill="#3A474F"/>
<path d="M31.706 31.7035L31.6419 31.75H31.8762L31.8656 31.8491H31.52V31.7456L31.6279 31.6517C31.7042 31.585 31.7709 31.5412 31.7709 31.4587C31.7709 31.3964 31.7358 31.371 31.67 31.371C31.6198 31.3737 31.5702 31.3834 31.5227 31.4V31.307C31.5733 31.2872 31.6271 31.2765 31.6814 31.2754C31.7963 31.2754 31.8849 31.3228 31.8849 31.4508C31.8849 31.5789 31.7928 31.6412 31.706 31.7035Z" fill="#3A474F"/>
<path d="M32.0754 31.8494V31.4038L31.9456 31.4582V31.3599L32.1008 31.2871H32.1885V31.8494H32.0754Z" fill="#3A474F"/>
<path d="M32.271 12H17.1956V27.0763H32.271V12Z" fill="#E04403"/>
<path d="M29.5945 14.1431H25.8252V17.9124H29.5945V14.1431Z" fill="white"/>
<path d="M21.098 24.2044C20.484 24.2044 19.8296 24.0334 19.8296 22.5421C19.8296 21.0509 20.6191 20.7878 21.2831 20.7878C21.5532 20.7841 21.8204 20.8442 22.0629 20.9632V21.4948C21.8124 21.4018 21.5497 21.346 21.2831 21.329C20.9463 21.329 20.4936 21.5097 20.4936 22.5018C20.4936 23.5544 20.8445 23.6807 21.0875 23.6807C21.2391 23.6765 21.3902 23.6604 21.5392 23.6325V22.6228H21.0875L21.0401 22.1141H22.2042V24.0334C21.8437 24.1349 21.4723 24.1923 21.098 24.2044Z" fill="white"/>
<path d="M24.7893 21.4017H24.0578V24.157H23.392V21.4017H22.585V20.8315H24.8657L24.7893 21.4017Z" fill="white"/>
<path d="M26.2103 24.2047C25.6542 24.2047 25.0322 24.0292 25.0322 22.4941C25.0322 20.9591 25.8156 20.7845 26.2717 20.7845C26.4824 20.7801 26.6917 20.8205 26.8857 20.9029V21.4398C26.6987 21.3748 26.5036 21.3365 26.3059 21.3257C25.9831 21.3257 25.698 21.5205 25.698 22.4941C25.698 23.3643 25.9024 23.6582 26.2585 23.6582C26.4724 23.6506 26.6838 23.6106 26.8857 23.5398V24.0766C26.6725 24.1676 26.4421 24.2113 26.2103 24.2047Z" fill="white"/>
<path d="M28.428 24.2044C27.9148 24.2044 27.2402 24.1 27.2402 22.4938C27.2402 20.8877 27.9578 20.7842 28.428 20.7842C28.8981 20.7842 29.6157 20.8982 29.6157 22.4938C29.6157 24.114 28.9297 24.2044 28.428 24.2044ZM28.428 21.2587C28.0955 21.2587 27.9016 21.4772 27.9016 22.4938C27.9016 23.5254 28.1437 23.7298 28.428 23.7298C28.7122 23.7298 28.9499 23.5394 28.9499 22.4938C28.9499 21.4965 28.7543 21.2587 28.428 21.2587Z" fill="white"/>
</g>
<defs>
<clipPath id="clip0_153_575">
<rect width="20.3509" height="20" fill="white" transform="translate(12 12)"/>
</clipPath>
</defs>
</svg>
