<svg width="44" height="44" viewBox="0 0 44 44" fill="none" xmlns="http://www.w3.org/2000/svg">
<rect x="0.5" y="0.5" width="43" height="43" rx="21.5" fill="white"/>
<rect x="0.5" y="0.5" width="43" height="43" rx="21.5" stroke="#E7EAEE"/>
<g clip-path="url(#clip0_143_823)">
<path d="M24.4162 31.9291L16.5735 22.8865L20.832 31.9291H17.8866L13.5216 22.7092L15.3315 31.9291H13.4861L11.6763 22.7092V31.9291H10.9666V12H11.6763V21.9291L13.5216 12H15.3315L13.4861 21.9645L17.9575 12H20.8675L16.4316 21.9291L24.4872 12H29.1005L20.761 22.2837L29.136 31.9291H24.4162Z" fill="#422466"/>
<path d="M31.7975 31.9998C33.0322 31.9998 34.0332 30.9996 34.0332 29.7658C34.0332 28.532 33.0322 27.5317 31.7975 27.5317C30.5627 27.5317 29.5618 28.532 29.5618 29.7658C29.5618 30.9996 30.5627 31.9998 31.7975 31.9998Z" fill="#422466"/>
</g>
<defs>
<clipPath id="clip0_143_823">
<rect width="23.0667" height="20" fill="white" transform="translate(10.9666 12)"/>
</clipPath>
</defs>
</svg>
