<svg width="26" height="17" viewBox="0 0 26 17" fill="none" xmlns="http://www.w3.org/2000/svg">
<g clip-path="url(#clip0_165_628)">
<path d="M16.464 2.07227H9.45557V14.65H16.464V2.07227Z" fill="#FF5F00"/>
<path d="M9.90067 8.36122C9.90067 5.91678 11.0354 3.58345 12.9488 2.07234C9.47794 -0.660998 4.44968 -0.0609974 1.71307 3.42789C-1.02355 6.89456 -0.422831 11.9168 3.07025 14.6501C5.98486 16.939 10.0564 16.939 12.971 14.6501C11.0354 13.139 9.90067 10.8057 9.90067 8.36122Z" fill="#EB001B"/>
<path d="M25.9201 8.36123C25.9201 12.7834 22.338 16.3612 17.9105 16.3612C16.1083 16.3612 14.3729 15.7612 12.9712 14.6501C16.442 11.9168 17.0427 6.89456 14.3061 3.40567C13.9056 2.91678 13.4607 2.45011 12.9712 2.07234C16.442 -0.660998 21.4925 -0.0609974 24.2069 3.42789C25.3193 4.82789 25.9201 6.56122 25.9201 8.36123Z" fill="#F79E1B"/>
<path d="M25.1636 13.317V13.0503H25.2748V13.0059H25.0078V13.0503H25.1191V13.317H25.1636ZM25.6753 13.317V13.0059H25.5863L25.4973 13.2281L25.4083 13.0059H25.3193V13.317H25.386V13.0725L25.475 13.2725H25.5418L25.6308 13.0725V13.317H25.6753Z" fill="#F79E1B"/>
</g>
<defs>
<clipPath id="clip0_165_628">
<rect width="25.92" height="16" fill="white" transform="translate(0 0.361328)"/>
</clipPath>
</defs>
</svg>
